<svg xmlns="http://www.w3.org/2000/svg" width="192" viewBox="0 0 192 192" height="192" version="1.0"><defs><clipPath id="a"><path d="M 2.734375 2.734375 L 189.484375 2.734375 L 189.484375 189.484375 L 2.734375 189.484375 Z M 2.734375 2.734375"/></clipPath></defs><g clip-path="url(#a)"><path fill="#3B5998" d="M 30.746094 2.734375 L 161.472656 2.734375 C 162.386719 2.734375 163.304688 2.777344 164.21875 2.867188 C 165.128906 2.957031 166.035156 3.09375 166.9375 3.273438 C 167.835938 3.449219 168.726562 3.671875 169.601562 3.941406 C 170.480469 4.207031 171.34375 4.515625 172.191406 4.867188 C 173.039062 5.21875 173.867188 5.609375 174.675781 6.042969 C 175.484375 6.472656 176.269531 6.945312 177.035156 7.453125 C 177.796875 7.964844 178.53125 8.511719 179.242188 9.09375 C 179.953125 9.675781 180.628906 10.289062 181.277344 10.9375 C 181.929688 11.585938 182.542969 12.265625 183.125 12.976562 C 183.707031 13.683594 184.253906 14.421875 184.761719 15.183594 C 185.273438 15.945312 185.742188 16.730469 186.175781 17.542969 C 186.609375 18.351562 187 19.179688 187.351562 20.027344 C 187.703125 20.875 188.011719 21.738281 188.277344 22.613281 C 188.542969 23.492188 188.765625 24.382812 188.945312 25.28125 C 189.125 26.179688 189.257812 27.085938 189.347656 28 C 189.4375 28.914062 189.484375 29.828125 189.484375 30.746094 L 189.484375 161.472656 C 189.484375 162.386719 189.4375 163.304688 189.347656 164.21875 C 189.257812 165.128906 189.125 166.035156 188.945312 166.9375 C 188.765625 167.835938 188.542969 168.726562 188.277344 169.601562 C 188.011719 170.480469 187.703125 171.34375 187.351562 172.191406 C 187 173.039062 186.609375 173.867188 186.175781 174.675781 C 185.742188 175.484375 185.273438 176.269531 184.761719 177.035156 C 184.253906 177.796875 183.707031 178.53125 183.125 179.242188 C 182.542969 179.953125 181.929688 180.628906 181.277344 181.277344 C 180.628906 181.929688 179.953125 182.542969 179.242188 183.125 C 178.53125 183.707031 177.796875 184.253906 177.035156 184.761719 C 176.269531 185.273438 175.484375 185.742188 174.675781 186.175781 C 173.867188 186.609375 173.039062 187 172.191406 187.351562 C 171.34375 187.703125 170.480469 188.011719 169.601562 188.277344 C 168.726562 188.542969 167.835938 188.765625 166.9375 188.945312 C 166.035156 189.125 165.128906 189.257812 164.21875 189.347656 C 163.304688 189.4375 162.386719 189.484375 161.472656 189.484375 L 30.746094 189.484375 C 29.828125 189.484375 28.914062 189.4375 28 189.347656 C 27.085938 189.257812 26.179688 189.125 25.28125 188.945312 C 24.382812 188.765625 23.492188 188.542969 22.613281 188.277344 C 21.738281 188.011719 20.875 187.703125 20.027344 187.351562 C 19.179688 187 18.351562 186.609375 17.542969 186.175781 C 16.730469 185.742188 15.945312 185.273438 15.183594 184.761719 C 14.421875 184.253906 13.683594 183.707031 12.976562 183.125 C 12.265625 182.542969 11.585938 181.929688 10.9375 181.277344 C 10.289062 180.628906 9.675781 179.953125 9.09375 179.242188 C 8.511719 178.53125 7.964844 177.796875 7.453125 177.035156 C 6.945312 176.269531 6.472656 175.484375 6.042969 174.675781 C 5.609375 173.867188 5.21875 173.039062 4.867188 172.191406 C 4.515625 171.34375 4.207031 170.480469 3.941406 169.601562 C 3.671875 168.726562 3.449219 167.835938 3.273438 166.9375 C 3.09375 166.035156 2.957031 165.128906 2.867188 164.21875 C 2.777344 163.304688 2.734375 162.386719 2.734375 161.472656 L 2.734375 30.746094 C 2.734375 29.828125 2.777344 28.914062 2.867188 28 C 2.957031 27.085938 3.09375 26.179688 3.273438 25.28125 C 3.449219 24.382812 3.671875 23.492188 3.941406 22.613281 C 4.207031 21.738281 4.515625 20.875 4.867188 20.027344 C 5.21875 19.179688 5.609375 18.351562 6.042969 17.542969 C 6.472656 16.730469 6.945312 15.945312 7.453125 15.183594 C 7.964844 14.421875 8.511719 13.683594 9.09375 12.976562 C 9.675781 12.265625 10.289062 11.585938 10.9375 10.9375 C 11.585938 10.289062 12.265625 9.675781 12.976562 9.09375 C 13.683594 8.511719 14.421875 7.964844 15.183594 7.453125 C 15.945312 6.945312 16.730469 6.472656 17.542969 6.042969 C 18.351562 5.609375 19.179688 5.21875 20.027344 4.867188 C 20.875 4.515625 21.738281 4.207031 22.613281 3.941406 C 23.492188 3.671875 24.382812 3.449219 25.28125 3.273438 C 26.179688 3.09375 27.085938 2.957031 28 2.867188 C 28.914062 2.777344 29.828125 2.734375 30.746094 2.734375 Z M 30.746094 2.734375"/></g><path fill="#FFF" d="M 107.414062 169.058594 L 107.414062 60 C 107.414062 52.339844 109.605469 47.234375 120.183594 47.234375 L 134.042969 47.234375 L 134.042969 24.253906 C 131.488281 23.890625 123.464844 23.160156 113.980469 23.160156 C 94.285156 23.160156 80.789062 35.195312 80.789062 57.445312 L 80.789062 169.058594 M 132.949219 76.414062 L 58.175781 76.414062 L 58.175781 102.675781 L 129.664062 102.675781"/></svg>