<svg xmlns="http://www.w3.org/2000/svg" width="192" viewBox="0 0 192 192" height="192" version="1.0"><defs><clipPath id="a"><path d="M 2.558594 2.558594 L 189.308594 2.558594 L 189.308594 189.308594 L 2.558594 189.308594 Z M 2.558594 2.558594"/></clipPath></defs><g clip-path="url(#a)"><path fill="#1D9BF0" d="M 165.964844 189.308594 L 25.902344 189.308594 C 13.015625 189.308594 2.558594 178.851562 2.558594 165.964844 L 2.558594 25.902344 C 2.558594 13.015625 13.015625 2.558594 25.902344 2.558594 L 165.964844 2.558594 C 178.851562 2.558594 189.308594 13.015625 189.308594 25.902344 L 189.308594 165.964844 C 189.308594 178.851562 178.851562 189.308594 165.964844 189.308594 Z M 165.964844 189.308594"/></g><path fill="#FFF" d="M 74.269531 143.367188 C 118.296875 143.367188 142.386719 106.859375 142.386719 75.25 C 142.386719 74.222656 142.386719 73.195312 142.339844 72.167969 C 147.007812 68.808594 151.070312 64.558594 154.292969 59.75 C 149.996094 61.664062 145.375 62.925781 140.519531 63.53125 C 145.46875 60.589844 149.25 55.875 151.070312 50.273438 C 146.449219 53.027344 141.3125 54.988281 135.851562 56.0625 C 131.460938 51.394531 125.253906 48.5 118.390625 48.5 C 105.175781 48.5 94.4375 59.238281 94.4375 72.449219 C 94.4375 74.316406 94.671875 76.136719 95.046875 77.910156 C 75.15625 76.929688 57.507812 67.359375 45.695312 52.886719 C 43.644531 56.433594 42.476562 60.542969 42.476562 64.933594 C 42.476562 73.242188 46.722656 80.574219 53.121094 84.867188 C 49.199219 84.726562 45.511719 83.652344 42.289062 81.878906 C 42.289062 81.972656 42.289062 82.066406 42.289062 82.207031 C 42.289062 93.785156 50.550781 103.496094 61.476562 105.691406 C 59.46875 106.25 57.367188 106.53125 55.175781 106.53125 C 53.632812 106.53125 52.140625 106.390625 50.691406 106.109375 C 53.726562 115.636719 62.597656 122.542969 73.054688 122.730469 C 64.839844 129.175781 54.519531 133.003906 43.316406 133.003906 C 41.402344 133.003906 39.488281 132.910156 37.621094 132.675781 C 48.171875 139.398438 60.777344 143.367188 74.269531 143.367188"/></svg>